<svg width="24" height="24" viewBox="0 0 24 24" fill="none" xmlns="http://www.w3.org/2000/svg">
<g opacity="1">
<path d="M9.49869 3.00049H14.4992C14.8971 3.00049 15.2786 3.15854 15.56 3.43987C15.8413 3.72121 15.9993 4.10278 15.9993 4.50064C15.9993 5.42899 15.6306 6.31932 14.9741 6.97577C14.3177 7.63221 13.4273 8.001 12.499 8.001H11.4989C10.5705 8.001 9.68021 7.63221 9.02377 6.97577C8.36732 6.31932 7.99854 5.42899 7.99854 4.50064C7.99854 4.10278 8.15659 3.72121 8.43792 3.43987C8.71925 3.15854 9.10082 3.00049 9.49869 3.00049Z" stroke="#073924" stroke-width="1.5" stroke-linecap="round" stroke-linejoin="round"/>
<path d="M12.4987 21.0022H7.99821C6.93724 21.0022 5.91972 20.5807 5.1695 19.8305C4.41927 19.0803 3.9978 18.0627 3.9978 17.0018V16.0017C3.99719 14.239 4.57867 12.5255 5.65194 11.1272C6.72521 9.729 8.23017 8.72433 9.93308 8.26927C11.636 7.81421 13.4415 7.93425 15.0692 8.61072C16.6969 9.2872 17.9194 10.3316 18.6242 11.5604M21.7313 15.134L16.5065 20.4499M16.9241 14.7555V15.134M21.4514 20.0714V20.4499" stroke="#073924" stroke-width="1.5" stroke-linecap="round" stroke-linejoin="round"/>
</g>
</svg>
