<svg width="24" height="24" viewBox="0 0 24 24" fill="none" xmlns="http://www.w3.org/2000/svg">
<path d="M20.2498 11.3666L14.0307 5.14751C13.8193 4.93407 13.5386 4.80315 13.2392 4.77833C12.9398 4.75351 12.6414 4.83642 12.3977 5.01213L9.60543 7.00055C9.37678 7.15662 9.10337 7.23365 8.82688 7.2199C8.55038 7.20615 8.28596 7.10238 8.07392 6.9244L2.48096 2.48218" stroke="#073924" stroke-width="1.5" stroke-linecap="round" stroke-linejoin="round"/>
<path d="M15.173 11.3666H20.2498V6.28979M4.11556 18.1357H10.4616C10.4616 18.1357 11.0962 18.1357 11.0962 18.7703V20.8857C11.0962 20.8857 11.0962 21.5203 10.4616 21.5203H4.11556C4.11556 21.5203 3.48096 21.5203 3.48096 20.8857V18.7703C3.48096 18.7703 3.48096 18.1357 4.11556 18.1357ZM5.38477 14.7512H11.7308C11.7308 14.7512 12.3654 14.7512 12.3654 15.3858V17.5011C12.3654 17.5011 12.3654 18.1357 11.7308 18.1357H5.38477C5.38477 18.1357 4.75016 18.1357 4.75016 17.5011V15.3858C4.75016 15.3858 4.75016 14.7512 5.38477 14.7512ZM4.11556 11.3666H10.4616C10.4616 11.3666 11.0962 11.3666 11.0962 12.0012V14.1166C11.0962 14.1166 11.0962 14.7512 10.4616 14.7512H4.11556C4.11556 14.7512 3.48096 14.7512 3.48096 14.1166V12.0012C3.48096 12.0012 3.48096 11.3666 4.11556 11.3666Z" stroke="#073924" stroke-width="1.5" stroke-linecap="round" stroke-linejoin="round"/>
</svg>
