<svg width="25" height="24" viewBox="0 0 25 24" fill="none" xmlns="http://www.w3.org/2000/svg">
<path d="M4.76781 18.0422C4.99269 19.7125 6.37613 21.021 8.05966 21.0984C9.47627 21.1635 10.9153 21.1975 12.5 21.1975C14.0847 21.1975 15.5237 21.1635 16.9403 21.0984C18.6239 21.021 20.0073 19.7125 20.2322 18.0422C20.379 16.9522 20.5 15.8351 20.5 14.6975C20.5 13.5599 20.379 12.4428 20.2322 11.3528C20.0073 9.68251 18.6239 8.374 16.9403 8.2966C15.5237 8.23148 14.0847 8.19751 12.5 8.19751C10.9153 8.19751 9.47627 8.23148 8.05966 8.2966C6.37613 8.374 4.99269 9.68251 4.76781 11.3528C4.62104 12.4428 4.5 13.5599 4.5 14.6975C4.5 15.8351 4.62104 16.9522 4.76781 18.0422Z" stroke="#073924" stroke-width="1.5"/>
<path d="M8 7.80249V7.30249C8 4.81721 10.0147 2.80249 12.5 2.80249C14.9853 2.80249 17 4.81721 17 7.30249V7.80249" stroke="#073924" stroke-width="1.5" stroke-linecap="round" stroke-linejoin="round"/>
<path d="M12.4961 15.5V13.5769" stroke="#073924" stroke-width="2" stroke-linecap="round" stroke-linejoin="round"/>
</svg>
